<svg width="40" height="40" viewBox="0 0 40 40" fill="none" xmlns="http://www.w3.org/2000/svg">
<path d="M37.4167 8.50209H35.0833V5.58543C35.0845 5.26328 34.8243 5.00115 34.502 5.00005C34.485 4.99998 34.468 5.00071 34.451 5.00209L32.9291 5.13043C29.2384 5.43566 25.6185 6.31831 22.2016 7.74609L20.5 8.45368L18.8002 7.74843C15.3829 6.32043 11.7625 5.43762 8.0715 5.13218L6.549 5.00209C6.22795 4.97504 5.94576 5.21333 5.91871 5.53438C5.91725 5.55137 5.91659 5.56844 5.91667 5.58543V8.50209H3.58333C3.26119 8.50209 3 8.76328 3 9.08543V33.5854C3 33.9076 3.26119 34.1688 3.58333 34.1688H37.4167C37.7388 34.1688 38 33.9076 38 33.5854V9.08543C38 8.76328 37.7388 8.50209 37.4167 8.50209ZM4.16667 33.0033V9.66876H5.91667V30.0854C5.91557 30.3892 6.14774 30.6429 6.45042 30.6688L8.02017 30.8029C8.44797 30.8387 8.8757 30.8828 9.3035 30.9353C9.44642 30.9523 9.58817 30.975 9.73108 30.9937C10.014 31.0316 10.2969 31.0695 10.5787 31.1144C10.7467 31.1413 10.9141 31.1728 11.0815 31.2025C11.337 31.2474 11.5925 31.2923 11.8468 31.3425C12.0218 31.3775 12.1968 31.416 12.3718 31.4539C12.6174 31.5064 12.863 31.5601 13.1074 31.6184C13.2824 31.6604 13.4603 31.7053 13.6365 31.7503C13.8774 31.8121 14.1177 31.8751 14.3575 31.9416C14.5325 31.9906 14.7075 32.0419 14.8825 32.0933C15.1205 32.1636 15.3579 32.2368 15.5947 32.3126C15.7682 32.3678 15.9412 32.4246 16.1139 32.4829C16.3525 32.5628 16.5893 32.6468 16.8262 32.7326C16.9942 32.7909 17.1628 32.8545 17.3296 32.9181C17.4019 32.9455 17.4737 32.9764 17.5454 33.0033H4.16667ZM19.9167 32.7104L18.841 32.2613C15.4263 30.8306 11.8082 29.9448 8.11875 29.6363L7.08333 29.5499V6.22009L7.9735 6.29476C11.5439 6.58978 15.0459 7.44349 18.3516 8.82468L19.9167 9.47451V32.7104ZM21.0833 32.7104V9.47451L22.6502 8.82409C25.9553 7.4432 29.4566 6.58971 33.0265 6.29476L33.9167 6.22009V29.5482L32.9582 29.6263C29.2666 29.9328 25.6452 30.8134 22.2249 32.2362L21.0833 32.7104ZM36.8333 33.0021H23.4633C23.5433 32.9712 23.6226 32.9385 23.7025 32.9082C23.8775 32.8411 24.0525 32.7775 24.2316 32.7139C24.4602 32.6311 24.6899 32.5508 24.9205 32.473C25.1002 32.4147 25.281 32.3563 25.4613 32.298C25.6917 32.2245 25.9233 32.1545 26.1548 32.0857C26.3368 32.032 26.5194 31.9789 26.702 31.9288C26.9353 31.8634 27.1687 31.8022 27.4078 31.7421C27.5887 31.696 27.7701 31.6499 27.9521 31.6068C28.1947 31.5484 28.4392 31.4959 28.6836 31.444C28.8586 31.4061 29.0336 31.367 29.2121 31.332C29.4688 31.2813 29.7266 31.2363 29.9838 31.1914C30.1507 31.1623 30.3169 31.1331 30.4843 31.1039C30.7719 31.0584 31.0601 31.0193 31.3488 30.9808C31.4871 30.9628 31.6253 30.9406 31.7642 30.9225C32.192 30.8708 32.6219 30.8266 33.0539 30.7901L34.5478 30.6688C34.8512 30.6438 35.0844 30.3898 35.0833 30.0854V9.66876H36.8333V33.0021Z" fill="#222222"/>
</svg>
