<svg width="40" height="40" viewBox="0 0 40 40" fill="none" xmlns="http://www.w3.org/2000/svg">
<path d="M37.6435 13.6794L31.0973 7.1332C30.3666 6.40243 29.395 6 28.3614 6H12.6385C11.605 6 10.6333 6.4025 9.90259 7.1332L3.35648 13.6794C2.88117 14.1548 2.88117 14.9283 3.35648 15.4037L6.88622 18.9334C7.11659 19.1638 7.42271 19.2906 7.74844 19.2906C8.07417 19.2906 8.38029 19.1638 8.61066 18.9334L10.7122 16.8318V31.8433C10.7122 32.6918 11.4025 33.3821 12.251 33.3821H28.7491C29.5976 33.3821 30.2879 32.6918 30.2879 31.8433V16.8318L32.3895 18.9334C32.6198 19.1638 32.9259 19.2906 33.2517 19.2906C33.5773 19.2906 33.8835 19.1638 34.1139 18.9334L37.6436 15.4036C38.1188 14.9282 38.1188 14.1547 37.6435 13.6794ZM22.9262 7.10524C22.6741 8.21232 21.6824 9.04132 20.5001 9.04132C19.3178 9.04132 18.3261 8.21232 18.074 7.10524H22.9262ZM16.9487 7.10524C17.2154 8.82551 18.7063 10.1466 20.5002 10.1466C22.2941 10.1466 23.785 8.82557 24.0517 7.10524H24.9098C24.6367 9.29623 22.764 10.9978 20.5003 10.9978C18.2366 10.9978 16.3639 9.29637 16.0908 7.10524H16.9487ZM29.1825 31.8433C29.1825 32.0824 28.988 32.2768 28.749 32.2768H12.2509C12.0119 32.2768 11.8175 32.0823 11.8175 31.8433V28.361H29.1825V31.8433ZM29.1825 27.2557H11.8175V25.024H29.1825V27.2557ZM29.1825 23.9187H11.8175V22.2344H29.1825V23.9187ZM29.1825 21.129H11.8175V18.8973H29.1825V21.129ZM36.8619 14.6221L33.3322 18.1519C33.3047 18.1794 33.2731 18.1852 33.2516 18.1852C33.2301 18.1852 33.1986 18.1794 33.171 18.1519L30.8028 15.7837C30.5303 15.5113 30.1243 15.4305 29.7684 15.5779C29.4125 15.7253 29.1825 16.0696 29.1825 16.4548V17.7919H11.8175V16.4548C11.8175 16.0696 11.5875 15.7254 11.2316 15.5779C11.1134 15.529 10.9898 15.5052 10.8673 15.5052C10.6208 15.5052 10.3793 15.6016 10.1971 15.7836L7.82897 18.1518C7.80142 18.1793 7.76984 18.1852 7.74837 18.1852C7.72691 18.1852 7.69533 18.1793 7.66778 18.1518L4.13803 14.6221C4.09353 14.5776 4.09353 14.5052 4.13803 14.4608L10.6842 7.91468C11.2062 7.39269 11.9003 7.10517 12.6385 7.10517H14.9774C15.2557 9.90716 17.6261 12.103 20.5002 12.103C23.3742 12.103 25.7447 9.90723 26.0229 7.10517H28.3614C29.0997 7.10517 29.7938 7.39262 30.3158 7.91468L36.8619 14.4608C36.9064 14.5053 36.9064 14.5777 36.8619 14.6221Z" fill="#222222"/>
</svg>
