<svg width="40" height="40" viewBox="0 0 40 40" fill="none" xmlns="http://www.w3.org/2000/svg">
<path d="M11.0953 18.0591V13.9637L17.2383 9.35649V4.23732C17.2383 4.23732 18.2131 2.54728 19.286 2.18966C20.0446 1.93678 20.575 1.93678 21.3337 2.18966C22.4065 2.54728 23.3813 4.23732 23.3813 4.23732V9.35649L29.5243 13.9637V18.0591M11.0953 18.0591H29.5243M11.0953 18.0591H9.55958L7 20.6187V24.2021M29.5243 18.0591H31.572L33.6197 20.6187V37H7V31.3689M7 24.2021H13.143V25.2259H7M7 24.2021V25.2259M7 25.2259V30.3451M7 30.3451H13.3755V31.3689H7M7 30.3451V31.3689" stroke="#222222" stroke-linecap="round" stroke-linejoin="round"/>
</svg>
