<svg width="40" height="40" viewBox="0 0 40 40" fill="none" xmlns="http://www.w3.org/2000/svg">
<circle cx="20" cy="23.5" r="11" stroke="#222222"/>
<circle cx="20.3" cy="23.5" r="8.5" stroke="#222222"/>
<path d="M28.25 20.5C27.8571 20.5 27.5313 20.5711 27.1976 20.7093C26.864 20.8475 26.5608 21.0501 26.3055 21.3055C26.0501 21.5608 25.8475 21.864 25.7093 22.1976C25.5711 22.5313 25.5 22.8889 25.5 23.25C25.5 23.6111 25.5711 23.9687 25.7093 24.3024C25.8475 24.636 26.0501 24.9392 26.3055 25.1945C26.5608 25.4499 26.864 25.6525 27.1976 25.7907C27.5313 25.9289 27.8889 26 28.25 26" stroke="#222222"/>
<rect x="5.5" y="3.5" width="29" height="33.5" stroke="#222222"/>
<rect x="7" y="6.5" width="10.5" height="1.5" stroke="#222222"/>
<circle cx="23.9499" cy="7.14998" r="1.55" stroke="#222222"/>
<circle cx="27.55" cy="7.14998" r="1.55" stroke="#222222"/>
<circle cx="31.4499" cy="7.14998" r="1.55" stroke="#222222"/>
</svg>
