<svg width="40" height="40" viewBox="0 0 40 40" fill="none" xmlns="http://www.w3.org/2000/svg">
<path d="M14 16.5V20.5H15.5V16.5H14Z" fill="#222222"/>
<path d="M24 16.5V20.5H25.5V16.5H24Z" fill="#222222"/>
<path d="M16.5 30.5V34.5H23.5V30.5L23 30H17L16.5 30.5Z" fill="#222222"/>
<path d="M11 6.75L9 8.5V28.5M11 6.75L13 5H26.5L28.75 6.75M11 6.75H7L1 15.5V17L5.5 28.5H9M9 28.5V30L13.5 34.5H16.5M31 28.5V8.5L28.75 6.75M31 28.5V29.5L26.5 34.5H23.5M31 28.5H35L39 17.5V15.5L33 6.75H28.75M16.5 34.5V30.5L17 30H23L23.5 30.5V34.5M16.5 34.5H23.5M24 16.5V20.5H25.5V16.5H24ZM14 16.5V20.5H15.5V16.5H14Z" stroke="#222222" stroke-linejoin="round"/>
</svg>
