<svg width="40" height="40" viewBox="0 0 40 40" fill="none" xmlns="http://www.w3.org/2000/svg">
<path d="M16.0712 7.4105C13.0135 4.35438 7.02997 4 2.79465 4C2.35602 4 2 4.35594 2 4.79457C2 9.02989 2.35281 15.0134 5.4105 18.0712C6.70099 19.3617 8.67961 19.9386 10.6407 19.9386C12.7719 19.9386 14.884 19.2568 16.0712 18.0696C18.3486 15.7922 18.7666 10.1043 16.0712 7.4105ZM14.9476 16.9476C13.2471 18.6464 8.52548 18.9373 6.53576 16.9476C4.06764 14.4795 3.6401 9.4654 3.59399 5.59399C7.4654 5.6401 12.4795 6.06756 14.9475 8.53569C16.9373 10.5254 16.6465 15.2487 14.9476 16.9476Z" fill="#222222"/>
<path d="M36.2055 7.14355C31.9701 7.14355 25.9866 7.49637 22.9289 10.5541C20.2335 13.2478 20.6514 18.9357 22.9289 21.2132C24.116 22.3988 26.2266 23.0806 28.3578 23.0806C30.3189 23.0806 32.2959 22.5052 33.5895 21.2148C36.6457 18.1571 37 12.1736 37 7.9382C37.0001 7.49957 36.6441 7.14355 36.2055 7.14355ZM32.4628 20.0895C30.4731 22.0793 25.7498 21.7884 24.0509 20.0895C22.352 18.3907 22.0612 13.6674 24.0509 11.6777C26.519 9.20955 31.5331 8.78209 35.4045 8.73598C35.3584 12.609 34.9309 17.6231 32.4628 20.0895Z" fill="#222222"/>
<path d="M30.4666 14.0218C30.2791 13.6229 29.7419 13.4862 29.3462 13.6705C23.2514 16.536 20.2573 21.5326 18.8969 26.669C17.2138 15.7476 12.346 12.4182 10.2815 11.0054C10.0241 10.829 9.82384 10.7002 9.71262 10.5906C9.40271 10.2807 8.8989 10.2807 8.58899 10.5906C8.27909 10.9005 8.27909 11.4043 8.58899 11.7142C8.74633 11.87 9.01809 12.0655 9.38521 12.3165C11.7119 13.9074 17.8924 18.1364 17.8924 34.9903C17.8924 35.429 18.2484 35.785 18.6871 35.785C19.1257 35.785 19.4817 35.429 19.4817 34.992C19.4817 28.1821 21.311 19.2044 30.0232 15.1105C30.0232 15.1089 30.1519 15.0485 30.1519 15.0485C30.5477 14.8609 30.6541 14.4191 30.4666 14.0218Z" fill="#222222"/>
</svg>
