<svg width="40" height="40" viewBox="0 0 40 40" fill="none" xmlns="http://www.w3.org/2000/svg">
<path d="M35.8938 37.5187L34.313 3.39987C34.3026 3.17561 34.1185 3 33.894 3H7.002C6.77742 3 6.59353 3.17572 6.58305 3.39987L5.00045 37.5612C4.99511 37.6751 5.03725 37.7876 5.11609 37.8701C5.19483 37.9526 5.30544 37.9999 5.4194 37.9999H35.4743C35.4757 37.9999 35.4768 37.9999 35.478 37.9999C35.4794 37.9999 35.4807 37.9999 35.4822 37.9999C35.7119 37.998 35.8985 37.8107 35.8985 37.5799C35.8984 37.559 35.8967 37.5388 35.8938 37.5187ZM21.6539 8.4345C21.8852 8.4345 22.0733 8.24641 22.0733 8.01513V3.83863H33.4937L35.0377 37.1612H5.85869L7.40228 3.83863H21.2345V8.01513C21.2345 8.24641 21.4225 8.4345 21.6539 8.4345Z" fill="#222222"/>
<path d="M14.3905 5.43106C14.3147 5.35516 14.2066 5.31165 14.0939 5.31165C13.9812 5.31165 13.8731 5.35516 13.7974 5.43096L7.17483 12.0536C7.01138 12.2173 7.01138 12.4833 7.17483 12.6466L8.55864 14.0304C8.63665 14.1085 8.74474 14.1533 8.85514 14.1533C8.96701 14.1533 9.07237 14.1097 9.15174 14.0304L15.7744 7.40765C15.938 7.2441 15.938 6.97811 15.7744 6.81466L14.3905 5.43106ZM14.8846 7.11116L8.85514 13.1409L8.06431 12.3501L14.0939 6.32033L14.8846 7.11116Z" fill="#222222"/>
<path d="M31.7448 14.0306C31.8241 14.1098 31.9293 14.1534 32.0413 14.1534C32.1518 14.1534 32.2599 14.1086 32.3377 14.0306L33.7215 12.6467C33.8008 12.5676 33.8444 12.4623 33.8444 12.3502C33.8444 12.2383 33.8008 12.133 33.7215 12.0538L27.0988 5.43118C27.023 5.35528 26.9149 5.31177 26.8022 5.31177C26.6896 5.31177 26.5815 5.35528 26.5057 5.43108L25.1221 6.81479C25.0429 6.89394 24.9993 6.99931 24.9993 7.11128C24.9993 7.22325 25.0429 7.32862 25.1221 7.40777L31.7448 14.0306ZM26.0114 7.11117L26.8021 6.32035L32.832 12.3501L32.0412 13.141L26.0114 7.11117Z" fill="#222222"/>
<path d="M19.3472 4.30896C18.5707 4.30896 17.939 4.94063 17.939 5.7172C17.939 6.49377 18.5706 7.12544 19.3472 7.12544C20.1236 7.12544 20.7553 6.49377 20.7553 5.7172C20.7553 4.94063 20.1236 4.30896 19.3472 4.30896ZM19.3472 6.2866C19.0332 6.2866 18.7777 6.0311 18.7777 5.7171C18.7777 5.40309 19.0332 5.14759 19.3472 5.14759C19.6611 5.14759 19.9166 5.40309 19.9166 5.7171C19.9166 6.0311 19.661 6.2866 19.3472 6.2866Z" fill="#222222"/>
</svg>
