<svg width="40" height="40" viewBox="0 0 40 40" fill="none" xmlns="http://www.w3.org/2000/svg">
<path d="M28 15H32M28 15L27 16V36.3098L28 37H32L33 36.3098V16L32 15M28 15V13L27 12V8L26 6.5V4.5L27.5 3H33L34.5 4.5V6.5L33 8.5V12L32 13V15" stroke="#222222" stroke-linejoin="round"/>
<path d="M15 15H16.5L17 16V24H19V36L18 37H6L5 36V24H7V16L7.5 15H9H15ZM15 15C15 15 15 8.49999 15 4.5C15 3.79597 14.704 2.99999 14 3C13 3.00001 11.5291 3.53893 10.5 4.5C9.58624 5.35338 9 7.5 9 7.5V15.0915" stroke="#222222" stroke-linejoin="round"/>
</svg>
